# xmcd
#
# Track frame offsets:
#	150
#	12008
#	25485
#	41009
#	54420
#	74575
#	91561
#	103886
#	119655
#	142569
#	159311
#	170662
#	191357
#	194707
#
# Disc length: 2831 seconds
#
# Revision: 0
# Processed by: cddbd v1.5.2PL0 Copyright (c) Steve Scherf et al.
# Submitted via: EasyCDDAExtractor 12.0.7.1
#
DISCID=bb0b0d0e
DTITLE=A.M. Interstate - Kimono Dragon
DYEAR=2008
DGENRE=
TTITLE0=Solid Gold
TTITLE1=Bologna
TTITLE2=Kimono Dragon
TTITLE3=Mahogany
TTITLE4=Boy Genius
TTITLE5=All The King's Men
TTITLE6=Sugarbyrd
TTITLE7=Suede
TTITLE8=Jennifer Gentle Siamese Cat
TTITLE9=Rawhide and Sweater
TTITLE10=Roscoe's In The Revolution
TTITLE11=Love You
TTITLE12=Into The Sun
TTITLE13=Into The Sun
EXTD=
EXTT0=
EXTT1=
EXTT2=
EXTT3=
EXTT4=
EXTT5=
EXTT6=
EXTT7=
EXTT8=
EXTT9=
EXTT10=
EXTT11=
EXTT12=
EXTT13=
PLAYORDER=
